<?xml version="1.0" standalone="no"?>
<!DOCTYPE svg PUBLIC "-//W3C//DTD SVG 20010904//EN"
 "http://www.w3.org/TR/2001/REC-SVG-20010904/DTD/svg10.dtd">
<svg version="1.0" xmlns="http://www.w3.org/2000/svg"
 width="300.000000pt" height="300.000000pt" viewBox="0 0 300.000000 300.000000"
 preserveAspectRatio="xMidYMid meet">
<metadata>
Created by potrace 1.10, written by Peter Selinger 2001-2011
</metadata>
<g transform="translate(0.000000,300.000000) scale(0.050000,-0.050000)"
fill="#000000" stroke="none">
<path d="M1 5905 c1 -78 5 -87 20 -50 10 25 31 51 47 57 48 18 30 88 -22 88
-42 0 -46 -9 -45 -95z"/>
<path d="M189 5945 c13 -51 50 -93 67 -75 20 19 -22 130 -50 130 -23 0 -27
-13 -17 -55z"/>
<path d="M313 5780 c4 -121 3 -220 -2 -220 -5 0 -32 11 -61 23 -49 23 -59 67
-15 67 12 0 28 7 37 15 13 13 -74 25 -121 16 -47 -9 -114 24 -131 65 -17 43
-17 43 -19 -8 -1 -39 16 -61 69 -89 39 -21 70 -52 70 -69 1 -25 4 -25 18 -2
14 21 21 18 31 -16 8 -23 20 -39 29 -34 8 5 52 1 99 -10 97 -21 143 -7 93 30
-25 18 -36 67 -43 193 -19 336 -66 370 -54 39z"/>
<path d="M388 5968 c7 -17 12 -40 12 -50 0 -10 14 -18 30 -18 17 0 30 9 30 20
0 11 -9 20 -20 20 -11 0 -20 14 -20 30 0 17 -10 30 -22 30 -12 0 -17 -14 -10
-32z"/>
<path d="M520 5906 c0 -224 25 -371 63 -381 20 -5 37 -18 37 -27 0 -10 9 -18
20 -18 30 0 24 52 -8 78 -22 18 -30 18 -37 -2 -6 -14 -17 75 -25 199 -15 226
-50 332 -50 151z"/>
<path d="M769 5915 c7 -47 18 -195 24 -330 12 -262 4 -282 -84 -216 -49 38
-69 38 -69 3 0 -15 25 -32 55 -37 30 -6 84 -22 120 -37 90 -37 129 13 112 142
-18 138 -45 140 -41 3 4 -120 -9 -155 -34 -91 -7 17 -12 82 -12 145 0 276 -25
503 -56 503 -23 0 -26 -17 -15 -85z"/>
<path d="M937 5785 c4 -118 16 -228 26 -245 14 -21 16 -10 8 38 -6 37 -11 147
-11 245 0 97 -7 177 -15 177 -8 0 -12 -97 -8 -215z"/>
<path d="M1241 5985 c0 -8 12 -30 26 -49 30 -40 77 -10 59 36 -11 29 -87 40
-85 13z"/>
<path d="M1505 5805 c-24 -107 -107 -514 -185 -905 -79 -390 -192 -948 -253
-1240 -60 -291 -114 -558 -120 -592 l-11 -62 91 2 c70 2 102 -9 137 -43 l45
-45 -60 -1 c-54 0 -56 -3 -23 -28 27 -20 29 -29 10 -36 -20 -7 -21 -15 -2 -37
29 -36 1 -89 -37 -69 -15 8 -9 0 13 -18 39 -32 39 -32 -6 -44 l-45 -12 44 -37
c40 -36 28 -51 -31 -39 -10 2 -7 -11 7 -28 22 -27 19 -31 -22 -32 -44 -2 -44
-3 -7 -19 22 -9 32 -18 23 -19 -10 0 -7 -14 7 -31 16 -19 17 -30 4 -30 -22 0
-23 -8 -26 -164 -1 -80 -8 -95 -45 -102 -43 -9 -43 -9 2 -11 54 -4 59 -33 10
-61 -19 -12 -24 -21 -10 -21 44 -1 27 -58 -20 -67 l-45 -9 45 -2 c53 -3 62
-63 10 -63 -30 -1 -31 -4 -5 -22 23 -16 24 -23 4 -31 -20 -8 -20 -17 -2 -39
18 -22 16 -28 -10 -28 -27 0 -29 -8 -13 -39 15 -27 15 -43 0 -52 -14 -8 -14
-21 2 -41 18 -21 18 -28 1 -28 -13 0 -19 -21 -14 -50 8 -41 1 -50 -34 -51 -41
0 -42 -2 -8 -28 25 -19 105 -27 265 -29 255 -2 228 -18 258 158 l12 69 -98
-96 c-64 -63 -103 -89 -112 -74 -11 17 -28 15 -63 -8 -60 -40 -60 -35 1 48 27
37 55 108 62 159 7 51 17 108 22 127 8 29 0 33 -57 22 -83 -16 -78 -11 -97
-101 -28 -136 -36 -165 -57 -201 -40 -68 113 752 155 830 12 21 24 60 27 87 4
26 13 57 20 68 20 33 96 351 96 404 0 27 8 44 17 38 10 -6 34 20 55 59 45 83
75 90 61 14 -6 -30 -21 -122 -34 -205 -13 -82 -40 -243 -61 -356 -21 -113 -38
-209 -38 -213 0 -3 -26 -17 -59 -30 -76 -32 -167 -263 -91 -234 17 7 30 3 30
-8 0 -10 -10 -19 -23 -19 -12 0 1 -19 30 -41 33 -26 53 -62 54 -95 0 -48 3
-50 22 -17 11 20 17 59 11 87 -6 32 4 64 26 86 24 24 29 43 16 56 -12 12 2 27
42 40 34 12 62 36 62 53 0 37 -23 40 -56 7 -46 -46 40 472 98 594 11 22 15 25
10 8 -30 -110 -33 -228 -4 -168 l29 60 1 -56 c1 -37 10 -51 25 -42 17 10 19
-15 9 -94 -15 -111 -31 -146 -46 -103 -18 50 -86 -12 -86 -80 0 -49 5 -58 24
-39 73 73 63 -128 -10 -207 -39 -42 -47 -63 -31 -83 16 -19 13 -29 -12 -38
-18 -7 -29 -25 -23 -39 5 -14 -3 -31 -19 -37 -16 -6 -29 -25 -29 -44 0 -18
-11 -28 -26 -22 -17 6 -25 -8 -23 -43 5 -106 7 -108 39 -76 16 17 25 42 19 57
-5 15 16 54 48 87 32 32 62 76 66 97 4 21 21 40 37 43 17 3 46 11 65 19 48 20
46 -41 -4 -124 -32 -52 -69 -177 -64 -215 1 -6 -11 -46 -27 -90 -33 -94 -30
-97 99 -94 l98 3 -4 130 c-3 72 -18 382 -33 690 -56 1068 -54 1050 -104 1050
-51 0 7 55 86 81 65 21 68 26 68 121 0 91 4 98 50 98 50 0 55 -91 7 -152 -22
-29 204 -55 232 -27 12 12 -1 19 -35 19 -64 0 -72 32 -12 51 49 15 70 -2 88
-72 12 -51 -128 -127 -165 -90 -7 6 -1 11 12 11 12 0 23 9 23 20 0 11 -22 9
-55 -5 -66 -29 -105 -64 -105 -94 0 -11 -28 -21 -62 -21 -82 0 -66 -48 19 -56
l63 -7 2 -143 c2 -154 2 -155 60 70 27 104 103 187 209 227 85 33 112 72 69
99 -11 7 -20 43 -20 81 0 59 -7 69 -48 69 -46 0 -72 33 -72 93 0 16 9 24 20
17 11 -7 20 -30 20 -51 0 -25 10 -34 30 -26 17 6 45 -1 63 -15 29 -24 31 -21
18 37 -10 48 -7 65 12 67 15 1 -4 12 -43 24 l-70 22 60 8 c33 4 69 17 80 28
14 15 11 17 -8 6 -22 -13 -25 -8 -15 21 14 36 14 36 -26 0 -37 -33 -41 -34
-41 -4 0 19 -16 33 -37 33 -74 0 -96 188 -46 388 24 94 43 219 43 277 0 59 8
116 17 126 37 40 43 145 9 158 -58 22 -55 34 -158 -634 -9 -57 -21 -75 -50
-75 -42 0 -52 157 -15 256 9 25 22 75 27 110 30 176 94 464 106 474 8 5 15 33
16 60 2 83 43 268 83 380 19 52 27 88 39 178 18 132 66 180 99 101 27 -63 16
-224 -15 -236 -10 -3 -13 -28 -6 -54 8 -31 0 -60 -21 -81 -22 -22 -30 -51 -22
-81 9 -36 4 -47 -24 -47 -23 -1 -27 -6 -11 -16 18 -11 18 -49 -2 -164 -14 -83
-18 -153 -9 -157 9 -3 17 -19 17 -35 0 -40 35 -35 58 8 21 40 130 457 172 662
30 146 24 169 -78 317 -40 57 -72 122 -72 145 0 81 -93 51 -107 -35 -7 -41
-22 -124 -32 -185 -10 -60 -60 -299 -111 -530 -51 -231 -97 -442 -102 -470 -5
-27 -17 -77 -27 -110 -10 -33 -33 -152 -52 -264 -19 -113 -43 -200 -52 -194
-9 6 -17 -1 -18 -16 0 -16 -9 -12 -21 10 -14 23 -14 45 -2 60 16 21 36 96 76
289 5 25 1 45 -9 45 -10 0 -22 -41 -28 -92 -6 -51 -30 -119 -54 -151 -111
-151 -78 -210 114 -202 14 0 25 -16 25 -36 0 -19 -11 -40 -25 -45 -14 -5 -20
-14 -13 -22 25 -27 78 14 78 60 l0 48 44 -44 c28 -28 46 -73 49 -125 3 -44 5
-88 6 -97 1 -9 9 -12 18 -6 19 12 18 -39 -2 -88 -6 -16 -15 -41 -18 -54 -5
-16 -17 -18 -35 -7 -23 14 -24 37 -4 141 14 68 20 128 15 134 -26 26 -51 -24
-64 -124 -14 -112 -40 -134 -105 -93 -28 18 -14 123 20 145 39 25 -6 72 -60
62 -84 -15 -96 -33 -132 -199 -19 -85 -52 -211 -73 -280 -22 -69 -44 -168 -50
-220 -13 -103 -56 -209 -101 -247 -37 -30 -37 -4 3 195 18 86 54 279 82 427
75 404 96 509 108 540 2 6 5 19 7 30 3 11 10 34 16 50 11 29 44 187 65 310 6
33 16 86 23 117 9 44 6 55 -15 49 -16 -6 -24 -31 -20 -65 4 -36 -1 -51 -15
-42 -14 9 -22 -12 -22 -58 0 -39 -8 -71 -19 -71 -31 0 -35 87 -6 146 15 30 22
62 17 71 -6 9 8 67 30 129 43 118 30 194 -32 194 -45 0 -60 93 -22 131 18 17
32 54 32 80 0 27 7 49 16 49 9 0 18 38 21 84 3 47 12 90 21 95 9 6 16 47 16
91 0 44 6 107 14 140 7 33 14 94 16 136 1 42 10 80 19 86 47 29 13 68 -59 68
l-77 0 -42 -195z m-60 -1081 c-14 -94 -38 -78 -32 21 8 141 10 147 26 94 8
-28 11 -80 6 -115z m-45 -201 c0 -56 23 -67 63 -30 35 31 37 31 37 -1 0 -19 9
-29 20 -22 11 7 20 -10 20 -39 0 -28 -9 -51 -20 -51 -41 0 -50 4 -45 22 3 10
-2 18 -11 18 -35 0 -120 87 -110 112 15 40 46 34 46 -9z m80 -204 c18 -33 15
-47 -16 -75 -24 -21 -47 -86 -63 -174 -37 -208 -119 -574 -139 -621 -11 -25
-10 -55 1 -75 27 -49 -27 -45 -73 6 -43 47 -30 253 22 357 17 34 25 71 18 82
-6 11 -1 41 13 66 14 25 23 58 19 74 -6 30 25 144 66 246 12 31 37 55 57 55
24 0 35 16 35 50 0 60 31 65 60 9z m486 -684 c29 -14 54 -32 54 -41 0 -23 -82
5 -115 39 -35 34 -10 35 61 2z"/>
<path d="M1948 5985 c-12 -8 -37 -100 -56 -205 -20 -104 -44 -221 -54 -260
-11 -38 -23 -97 -28 -130 -13 -94 -43 -215 -67 -275 -12 -30 -16 -55 -9 -55 8
0 3 -11 -10 -24 -36 -36 -29 -76 14 -76 60 0 75 36 132 320 51 261 137 622
162 688 13 34 -42 45 -84 17z"/>
<path d="M2562 5555 c1 -245 9 -467 18 -495 9 -27 17 -37 18 -22 1 16 8 23 15
15 8 -7 -13 -47 -45 -88 -33 -41 -75 -100 -94 -130 -22 -35 -52 -55 -83 -55
-105 0 -251 -43 -251 -74 0 -34 171 -21 209 16 56 53 68 -11 20 -104 -35 -67
-87 -311 -101 -468 -23 -260 -50 -390 -80 -390 -33 0 -38 -52 -7 -71 14 -8 14
-21 -2 -41 -13 -15 -19 -51 -14 -78 5 -28 2 -56 -8 -62 -36 -22 8 -158 68
-212 57 -51 59 -60 49 -170 -58 -599 -80 -710 -103 -506 -15 136 -37 184 -96
206 -24 9 -35 34 -35 83 0 39 -8 71 -18 71 -9 0 -23 20 -30 45 -10 38 -15 40
-32 15 -16 -24 -19 -22 -20 15 0 25 -8 45 -17 45 -16 0 -9 -48 28 -204 8 -30
26 -65 41 -78 15 -13 28 -30 28 -39 0 -58 44 -126 63 -98 16 23 18 19 11 -16
-6 -25 2 -87 18 -138 15 -51 28 -119 28 -150 0 -31 9 -57 20 -57 30 0 24 -102
-10 -168 -35 -66 -69 -391 -47 -446 10 -25 15 -14 18 39 9 176 39 177 39 2 0
-127 5 -144 56 -193 73 -70 84 -68 84 15 0 86 35 112 51 37 31 -149 109 -176
109 -37 0 95 40 123 96 67 40 -40 31 -143 -11 -127 -28 11 -30 8 -10 -11 37
-39 699 -63 1033 -38 182 14 333 14 440 1 89 -10 253 -24 365 -30 l203 -11
-11 125 c-15 172 -35 222 -80 199 -19 -10 -46 -15 -60 -10 -38 14 -30 -29 10
-52 47 -28 15 -26 -105 5 -99 25 -100 27 -106 110 l-6 85 206 -4 c113 -1 251
5 306 15 58 10 169 10 270 -1 93 -11 289 -20 435 -21 l265 -1 9 -60 c15 -104
7 -130 -41 -130 -94 0 -146 47 -73 66 19 5 10 9 -21 7 -41 -1 -58 -14 -65 -47
-5 -25 -15 -71 -22 -101 -54 -232 -73 -214 238 -220 l275 -5 0 87 0 88 -110
14 -110 14 5 68 c3 38 11 69 18 69 8 0 20 29 28 65 7 36 28 83 46 105 31 36
31 37 0 14 -53 -41 -137 8 -137 80 0 34 -8 53 -20 46 -11 -7 -20 -30 -20 -51
0 -43 -3 -44 -159 -39 -82 2 -118 13 -144 44 -38 43 -217 72 -217 35 0 -10
-13 -19 -30 -19 -45 0 -36 35 13 51 32 10 36 17 16 30 -15 9 -35 11 -46 5 -10
-6 -14 1 -9 16 6 15 25 25 43 22 22 -4 29 4 21 25 -7 17 -25 31 -41 31 -16 0
-24 -8 -18 -19 6 -10 3 -24 -9 -31 -11 -7 -20 -40 -20 -73 0 -46 -7 -58 -30
-50 -16 7 -30 2 -30 -11 0 -12 -18 -6 -41 15 -45 41 -51 210 -17 499 39 332
73 373 58 70 -5 -110 -4 -200 3 -200 20 0 39 131 38 266 -2 191 22 434 44 447
13 8 15 -96 7 -305 -9 -205 -7 -308 5 -290 11 16 15 40 10 53 -5 14 1 31 14
39 17 11 17 19 -3 31 -21 13 -20 24 8 54 39 43 45 98 12 109 -16 5 -16 29 -1
85 15 53 15 86 1 103 -13 17 -13 29 1 37 12 8 21 6 21 -2 0 -9 14 4 31 28 26
37 28 64 10 157 -23 127 -17 148 45 148 24 0 35 7 24 15 -40 30 -33 71 9 59
23 -5 46 -2 52 8 6 10 -8 18 -31 18 -28 0 -37 8 -27 24 8 13 12 64 9 112 -3
56 2 84 15 76 11 -7 26 -4 33 8 7 11 -2 20 -19 20 -21 0 -31 18 -31 55 0 30 7
45 15 33 31 -47 103 -53 91 -9 -10 39 -3 40 151 36 162 -5 197 -21 161 -77
-12 -20 -17 -21 -18 -3 0 14 -25 25 -59 25 -40 0 -56 -8 -50 -25 14 -37 131
-27 161 14 14 19 36 29 49 21 17 -11 18 -5 2 25 -23 43 62 127 112 110 39 -13
29 -36 -17 -40 -90 -6 -58 -64 36 -65 43 0 44 3 43 355 0 250 -6 337 -19 295
-24 -76 -31 -251 -13 -290 42 -89 -37 -117 -360 -124 l-305 -6 0 100 c0 84 7
104 44 120 24 11 47 30 51 43 8 28 -58 25 -81 -3 -9 -11 -11 66 -5 170 14 216
70 1421 71 1505 0 47 -8 55 -57 55 l-57 0 -13 -255 c-7 -140 -26 -597 -42
-1015 -17 -418 -34 -816 -40 -883 l-9 -124 62 -22 c55 -18 59 -25 32 -46 -27
-22 -172 -444 -247 -722 -109 -403 -172 -773 -131 -773 9 0 17 -22 17 -50 0
-27 -8 -50 -17 -50 -10 0 -18 8 -18 18 0 9 -22 17 -49 17 -27 0 -63 15 -81 32
-19 19 -66 33 -111 33 -49 0 -80 10 -81 25 -1 14 -9 -1 -18 -32 -27 -87 -9
-105 106 -106 192 -2 214 -6 214 -37 0 -21 -17 -27 -58 -22 -37 4 -55 -2 -50
-16 5 -13 -15 -23 -47 -24 -30 0 -144 -4 -254 -7 -226 -7 -216 -15 -241 183
l-14 111 90 13 c51 8 95 27 102 43 8 21 27 26 62 17 31 -8 50 -4 50 10 0 16
-38 19 -126 10 l-126 -13 -21 70 c-16 52 -15 88 3 142 14 39 20 76 14 82 -15
15 97 14 174 -1 95 -20 74 -38 -38 -36 -56 2 -106 -6 -113 -17 -7 -12 23 -17
80 -12 51 4 93 0 93 -10 0 -10 12 -13 26 -7 14 5 48 -2 75 -17 35 -18 56 -20
74 -4 14 11 31 15 38 9 6 -6 33 -3 59 7 37 14 48 11 48 -10 0 -50 42 -57 82
-14 25 27 38 70 38 123 0 50 8 77 20 70 11 -7 20 2 20 20 0 18 -8 27 -19 21
-31 -19 -43 24 -15 53 37 36 64 145 32 125 -16 -10 -19 -7 -8 11 25 41 54 182
52 256 -1 39 9 70 26 76 17 6 28 39 28 80 0 38 10 81 22 95 12 15 16 32 10 38
-12 12 29 149 56 186 21 31 -23 69 -80 69 -41 0 -45 -5 -24 -30 14 -16 17 -30
7 -30 -10 0 -20 -37 -22 -82 -2 -45 -13 -93 -25 -108 -12 -14 -19 -33 -17 -43
5 -18 -14 -90 -42 -157 -9 -22 -28 -94 -41 -160 -13 -66 -37 -165 -54 -220
-17 -55 -35 -150 -41 -212 l-10 -111 -92 15 c-147 23 -189 33 -244 54 -29 11
-85 19 -125 17 l-74 -4 0 296 0 295 -62 0 c-55 0 -61 -6 -51 -44 8 -32 -10
-20 -67 44 -64 73 -90 88 -149 88 -42 0 -60 6 -46 16 17 10 11 15 -18 16 -23
0 -54 15 -69 33 -32 38 21 28 130 -25 32 -15 60 -28 63 -28 19 0 27 148 9 169
-12 15 -19 34 -16 44 4 15 -65 220 -131 387 -38 98 -22 149 33 103 33 -27 554
-30 554 -3 0 11 -9 20 -20 20 -11 0 -3 17 17 37 20 20 51 36 70 36 39 0 40 -2
9 -52 -14 -22 -17 -46 -9 -55 9 -9 25 0 35 18 32 57 80 97 102 84 13 -8 10
-19 -7 -30 -18 -12 -19 -17 -3 -18 34 0 52 38 31 66 -24 33 -20 79 9 89 26 8
58 -159 37 -194 -9 -13 15 -21 65 -21 73 0 131 60 94 97 -20 20 -68 -18 -57
-46 8 -23 3 -28 -22 -19 -23 9 -30 29 -23 66 5 28 16 236 23 460 l13 408 -125
-13 c-69 -7 -168 -13 -221 -13 l-97 0 1 -75 c5 -358 -5 -501 -38 -512 -19 -7
-50 -23 -70 -37 -23 -17 -40 -19 -50 -6 -8 11 -26 20 -42 20 -39 0 -46 102
-24 360 18 204 4 310 -29 223 -8 -18 -35 -33 -61 -33 -26 0 -48 -9 -48 -20 0
-11 14 -20 30 -20 22 0 29 -22 27 -85 l-3 -85 -14 80 c-11 63 -15 43 -17 -94
-2 -97 6 -179 17 -186 11 -7 20 -48 20 -93 0 -68 -4 -76 -28 -52 -17 17 -24
50 -17 83 9 47 4 55 -27 49 -25 -5 -40 -27 -44 -67 -4 -33 -20 -70 -36 -83
-17 -13 -31 -44 -31 -70 -2 -108 -17 -140 -63 -133 -30 4 -44 20 -45 50 0 24
-7 50 -15 58 -8 8 -14 42 -15 76 -1 53 -99 369 -147 476 -12 25 5 46 66 87
120 79 108 105 -35 77 -35 -7 -63 -25 -63 -40 0 -42 -172 155 -194 222 -19 60
-62 74 -50 16 6 -25 -4 -28 -50 -16 -134 36 -293 28 -406 -21 -124 -54 -183
-64 -144 -25 17 17 24 150 24 470 l0 446 -60 0 -60 0 2 -445z m418 -540 c32
-20 48 -20 80 0 36 23 39 20 35 -25 -2 -27 -16 -50 -31 -50 -14 0 -21 9 -14
20 7 11 3 20 -8 20 -11 0 -24 -8 -30 -17 -12 -19 -80 -17 -87 3 -23 65 -2 85
55 49z m1577 -167 c23 14 20 -538 -3 -560 -7 -8 -25 -3 -40 9 -15 12 -31 19
-36 14 -7 -6 -6 379 1 549 2 47 4 48 30 13 16 -20 37 -31 48 -25z m-1404 -102
c53 -56 115 -105 136 -109 46 -9 98 -98 72 -124 -26 -26 -61 3 -61 49 0 22 -9
35 -20 28 -11 -7 -20 -29 -20 -50 0 -32 -9 -35 -60 -20 -122 35 -236 -75 -280
-270 -25 -112 1 -190 62 -190 20 0 41 -9 48 -20 7 -11 -2 -20 -19 -20 -17 0
-31 -12 -31 -27 0 -18 -19 -23 -60 -17 -36 5 -60 0 -60 -14 0 -12 14 -22 30
-22 17 0 28 -8 25 -18 -3 -10 4 -20 15 -22 11 -2 29 -10 40 -19 11 -9 36 -13
55 -10 55 9 41 -25 -20 -46 -84 -30 -182 -7 -219 49 -21 32 -45 46 -69 39 -57
-14 -64 21 -18 95 46 74 53 119 17 107 -70 -23 -94 -229 -30 -253 25 -10 57
-32 71 -49 29 -35 113 -64 236 -81 80 -11 84 -10 116 63 18 41 42 92 53 112
16 29 12 47 -18 80 -130 144 -109 339 32 303 93 -23 161 -170 80 -170 -14 0
-4 -15 22 -33 37 -26 44 -44 34 -93 -7 -33 -1 -91 12 -128 23 -63 21 -70 -40
-131 -35 -35 -64 -53 -64 -40 0 14 -10 25 -21 25 -12 0 -17 -8 -11 -17 12 -19
-72 -63 -118 -63 -17 0 -24 12 -17 30 12 33 6 36 -41 18 -18 -7 -32 -26 -32
-43 0 -18 6 -26 12 -19 38 37 67 -44 39 -109 -22 -55 -23 -76 -2 -114 l25 -47
39 67 c22 37 52 96 68 132 74 167 104 27 41 -192 -21 -73 -55 -194 -75 -268
-20 -74 -44 -135 -53 -135 -30 0 -68 50 -94 124 -19 52 -36 69 -58 61 -21 -7
-18 0 8 21 22 17 46 26 54 22 8 -5 24 9 36 31 20 37 16 41 -46 41 -56 0 -71
10 -95 63 -16 35 -47 74 -69 85 -43 24 -88 73 -89 98 -1 8 32 -7 73 -35 55
-37 80 -44 100 -28 41 34 31 52 -43 77 -243 80 -419 533 -269 692 26 28 46 57
44 65 -2 7 40 10 95 7 105 -6 115 4 70 63 -22 29 -36 32 -68 15 -73 -40 -128
-28 -112 23 19 62 16 60 118 58 109 -2 120 27 19 46 -68 13 -72 17 -60 75 6
33 12 78 12 99 0 112 106 148 315 105 25 -5 45 0 45 11 0 10 -47 22 -103 25
-140 8 -148 47 -9 45 103 0 111 -5 205 -103z m1279 -347 c6 -104 27 -154 73
-169 41 -13 41 -15 7 -24 -25 -7 -55 11 -90 52 -29 34 -66 62 -83 63 -24 0
-24 4 3 25 17 13 38 50 46 81 17 68 40 54 44 -28z m-1106 -7 c37 -35 50 -64
45 -105 -3 -31 -9 -84 -11 -117 -3 -44 -7 -50 -14 -20 -6 22 -21 53 -33 69
-18 22 -17 25 2 14 51 -31 22 57 -32 100 -54 42 -59 43 -150 13 -108 -36 -129
-27 -97 44 33 72 213 73 290 2z m749 -97 c0 -14 7 -56 13 -95 7 -38 7 -59 1
-45 -7 14 -26 25 -42 25 -16 0 -24 -9 -17 -20 7 -11 -2 -20 -19 -20 -34 0 -43
70 -11 90 11 7 20 30 20 51 0 42 52 55 55 14z m-535 -95 c0 -11 15 -20 33 -20
25 0 20 -12 -21 -53 -59 -60 -83 -53 -60 16 9 26 14 54 12 62 -2 8 5 15 16 15
11 0 20 -9 20 -20z m2010 -320 c-143 -7 -272 -17 -287 -22 -16 -4 -32 3 -37
17 -7 19 57 24 287 22 l297 -4 -260 -13z m-1934 -34 c30 -19 57 -36 61 -38 26
-18 35 -150 12 -169 -15 -12 -30 -59 -33 -104 -5 -74 -13 -84 -70 -99 -41 -11
-61 -26 -55 -43 6 -14 -8 -42 -30 -62 -30 -27 -41 -62 -41 -129 -1 -66 -6 -83
-20 -62 -16 26 -23 24 -50 -10 -29 -36 -29 -33 0 26 32 65 31 66 -7 46 -22
-12 -51 -55 -64 -95 -23 -68 -26 -71 -51 -37 -41 55 25 249 74 219 10 -6 18
-2 18 10 0 11 -9 21 -20 21 -12 0 -16 24 -11 55 24 131 35 165 53 154 10 -6
18 -3 18 8 0 11 -8 23 -17 26 -46 18 -45 94 1 100 32 5 63 39 102 112 64 120
58 116 130 71z m-1209 -88 c8 -36 4 -75 -9 -90 -12 -14 -16 -35 -10 -45 7 -11
6 -34 -1 -53 -10 -27 -16 -28 -29 -7 -13 21 -17 19 -18 -8 0 -19 8 -35 19 -35
10 0 14 -30 8 -66 -8 -46 -1 -74 21 -92 27 -22 32 -22 33 1 0 18 10 14 30 -13
18 -24 26 -60 19 -91 -8 -35 -1 -62 20 -79 42 -35 62 -11 36 45 -68 151 -114
476 -70 503 20 12 29 -25 52 -228 10 -90 33 -160 52 -160 8 0 20 -34 25 -75 6
-41 18 -92 27 -113 12 -31 8 -36 -19 -26 -24 9 -33 2 -33 -31 0 -38 -10 -33
-78 38 -61 64 -85 77 -112 62 -30 -17 -32 -12 -21 41 7 33 5 65 -5 72 -41 25
-49 271 -13 403 37 136 56 148 76 47z m1373 -178 c0 -43 -9 -83 -20 -90 -12
-8 -20 27 -20 90 0 63 8 98 20 90 11 -7 20 -47 20 -90z m105 -39 c13 -49 3
-59 -45 -47 -32 8 -34 16 -14 48 30 48 47 48 59 -1z m-1168 -316 c-2 -47 -13
-85 -24 -85 -11 0 -14 6 -7 12 7 7 -6 28 -29 47 -47 38 -65 137 -32 176 17 22
24 22 38 1 12 -19 17 -15 18 14 2 28 8 22 21 -20 9 -33 16 -98 15 -145z m1205
9 c32 -33 58 -68 58 -77 0 -9 11 -15 25 -12 17 3 28 -34 36 -115 7 -84 14
-105 22 -70 6 28 13 -10 14 -86 2 -87 10 -132 23 -124 19 12 7 -146 -13 -168
-3 -5 3 -20 14 -33 13 -15 20 -129 18 -282 -2 -141 -2 -336 0 -432 3 -133 -3
-182 -26 -205 -35 -34 -113 -41 -113 -9 0 13 -17 16 -41 9 -44 -14 -106 43
-84 78 6 10 1 12 -11 5 -39 -25 -66 62 -52 167 7 56 20 105 29 111 9 5 12 31
8 58 -5 26 0 72 11 101 13 34 13 48 0 40 -21 -13 -25 9 -29 140 -1 44 -8 90
-16 102 -17 27 -18 133 -3 243 7 51 4 85 -8 85 -25 0 -44 -49 -44 -112 0 -26
-10 -48 -22 -48 -12 0 -17 -13 -11 -30 8 -20 -1 -30 -25 -30 -34 0 -115 252
-100 311 8 29 -24 232 -45 288 -14 34 -11 53 7 65 209 132 276 137 378 30z
m-1169 -244 c25 -118 20 -190 -12 -190 -9 0 -21 26 -28 58 -6 31 -17 83 -24
115 -9 43 -7 50 9 27 18 -26 21 -25 22 6 0 19 -13 40 -30 47 -42 16 -38 72 4
63 24 -4 42 -42 59 -126z m-273 1 c0 -88 -24 -146 -91 -221 -42 -46 -51 -51
-43 -20 16 59 39 174 45 224 13 108 89 123 89 17z m1011 -80 c-7 -39 -21 -71
-31 -71 -10 0 -15 11 -11 25 4 14 13 51 20 82 18 82 38 49 22 -36z m-57 10 c2
-21 -10 -49 -25 -62 -16 -13 -29 -35 -29 -48 0 -14 -18 -45 -39 -70 -21 -24
-42 -54 -46 -66 -20 -61 -75 8 -75 93 0 98 47 152 134 152 26 0 46 9 46 20 0
37 31 20 34 -19z m-515 -30 c49 -52 89 -209 61 -238 -28 -30 -64 9 -55 59 5
27 2 48 -8 48 -9 0 -17 -11 -17 -25 -1 -18 -5 -18 -18 2 -9 15 -13 47 -8 70 8
35 5 37 -12 13 -17 -23 -21 -14 -22 45 0 88 16 93 79 26z m-352 -164 c-6 -181
-30 -290 -57 -267 -29 24 -25 124 7 205 17 42 16 55 -2 55 -16 0 -17 6 -5 15
11 8 21 26 22 40 9 111 39 70 35 -48z m101 -6 c10 -55 8 -65 -12 -45 -14 14
-26 57 -27 96 -3 82 19 52 39 -51z m497 -67 c8 -20 47 -49 87 -66 51 -21 67
-37 52 -52 -14 -14 -39 -12 -81 9 -82 41 -110 -29 -29 -72 50 -26 50 -27 9
-38 -29 -8 -43 -2 -43 16 0 16 -22 34 -50 41 -38 9 -50 25 -50 66 0 30 -11 65
-24 78 -19 19 -14 24 20 24 24 0 44 9 44 20 0 33 49 13 65 -26z m-372 -110 c2
-26 17 -58 31 -71 15 -13 23 -21 18 -18 -4 2 -20 -11 -34 -30 -24 -33 -27 -33
-56 5 -23 30 -31 32 -31 10 0 -49 54 -106 88 -93 41 16 41 -35 0 -76 -18 -17
-42 -31 -55 -31 -14 0 -12 9 6 20 26 17 25 19 -5 20 -19 0 -33 7 -31 15 3 8
-6 33 -18 55 -26 47 -36 219 -16 283 l14 43 42 -42 c23 -23 44 -63 47 -90z
m173 -31 c53 -112 33 -127 -41 -30 -73 95 -81 123 -30 113 19 -4 51 -41 71
-83z m515 5 c25 -46 26 -44 -37 -76 -25 -13 -40 -33 -33 -44 8 -12 23 -7 38
14 22 30 26 27 37 -28 25 -126 -56 -238 -105 -145 -40 75 -9 261 44 261 11 0
14 14 8 30 -18 46 22 36 48 -12z m-170 -72 c-20 -80 -106 -162 -123 -117 -9
22 9 56 53 102 81 83 87 85 70 15z m-974 -15 c11 -59 -16 -164 -55 -208 -46
-54 -62 -54 -62 -3 0 22 10 38 23 35 12 -3 27 8 32 23 7 20 0 25 -22 16 -24
-9 -33 -2 -33 28 0 25 9 35 23 26 14 -8 18 -5 10 7 -20 32 23 130 52 120 14
-5 28 -24 32 -44z m294 -47 c4 -186 3 -183 89 -196 45 -7 86 -21 92 -31 18
-30 63 -19 121 30 65 53 237 87 220 43 -6 -14 -21 -62 -34 -106 -26 -86 -177
-133 -229 -72 -11 13 -54 30 -96 37 -42 7 -94 31 -115 52 -22 22 -47 39 -56
39 -31 0 -65 219 -41 264 28 53 47 30 49 -60z m1016 -146 c-1 -15 -9 -46 -17
-68 -15 -40 -15 -40 17 0 32 39 33 38 32 -20 0 -33 6 -89 13 -125 10 -54 7
-63 -18 -54 -60 23 -122 254 -80 296 21 21 56 2 53 -29z m-1201 -10 c-6 -18
-1 -39 13 -48 15 -9 20 -32 12 -58 -8 -23 -23 -37 -33 -31 -12 8 -10 25 6 44
22 27 20 29 -19 17 -51 -17 -58 8 -20 68 29 48 59 53 41 8z m935 -99 c14 -18
43 -27 63 -22 27 7 36 -2 36 -38 0 -26 9 -52 20 -59 29 -18 16 -110 -16 -110
-14 0 -21 -9 -14 -20 7 -11 2 -20 -10 -20 -12 0 -17 -9 -10 -20 7 -11 0 -15
-16 -9 -15 6 -39 42 -54 80 -32 80 -51 87 -67 25 -6 -24 -18 -37 -27 -29 -21
21 -25 135 -5 122 35 -21 40 36 6 62 -34 26 -34 28 -2 28 19 1 35 10 35 21 0
30 32 24 61 -11z m-796 -254 c3 -34 -6 -65 -20 -69 -14 -5 -25 2 -25 15 0 14
-15 35 -33 48 -26 19 -28 33 -10 66 13 23 15 45 4 48 -10 4 -12 34 -6 67 l11
59 37 -87 c21 -48 40 -114 42 -147z m615 145 c0 -11 -11 -20 -25 -20 -19 -1
-19 -5 1 -17 48 -31 14 -174 -69 -288 -109 -150 -122 -161 -199 -163 -79 -2
-81 35 -1 44 57 7 75 74 30 119 -29 29 -5 92 31 78 32 -12 62 74 39 111 -9 15
-2 18 19 10 31 -12 134 86 134 128 0 10 9 18 20 18 11 0 20 -9 20 -20z m-224
-47 c5 -24 -7 -33 -43 -33 -69 0 -113 20 -113 50 0 41 148 24 156 -17z m-244
-42 c14 -56 -2 -91 -42 -91 -30 0 -47 51 -34 105 13 52 61 43 76 -14z m-277
-55 c2 -46 -6 -95 -18 -109 -11 -14 -15 -34 -8 -45 6 -10 4 -24 -6 -30 -10 -7
-24 9 -31 33 -10 38 -15 40 -32 15 -36 -55 -20 -2 32 109 63 133 59 131 63 27z
m-162 -94 c6 -66 -1 -120 -21 -157 l-29 -55 -22 58 c-24 62 -21 254 4 239 8
-5 15 6 15 26 0 79 44 -13 53 -111z m1023 -9 c-3 -27 -11 -46 -18 -42 -8 5
-19 -5 -26 -22 -6 -17 -4 -27 5 -21 9 6 16 -35 16 -89 0 -63 -8 -97 -21 -93
-36 12 -29 306 6 298 23 -5 24 0 6 22 -13 15 -17 34 -10 41 21 21 46 -37 42
-94z m280 -7 c2 -76 -1 -87 -16 -51 -10 25 -33 45 -49 45 -39 0 -39 20 0 76
44 62 61 43 65 -70z m-716 41 c0 -19 -11 -27 -30 -20 -17 7 -38 -4 -50 -27
-12 -23 -33 -34 -50 -27 -39 15 -38 47 1 47 17 0 26 8 20 18 -12 20 12 32 72
37 21 1 37 -11 37 -28z m686 -134 c12 -38 11 -71 -4 -100 -23 -42 -23 -42 -15
-1 5 25 -7 51 -30 65 -32 20 -37 17 -37 -25 0 -27 11 -52 24 -57 13 -4 16 -18
8 -32 -22 -36 -72 10 -72 65 0 131 90 191 126 85z"/>
<path d="M2670 4180 c20 -22 44 -40 53 -40 9 0 17 18 17 40 0 30 -13 40 -53
40 -52 0 -52 -1 -17 -40z"/>
<path d="M3055 1834 c-38 -57 -45 -82 -18 -66 19 12 14 -74 -6 -107 -27 -44 3
-19 43 36 33 43 39 72 29 123 l-14 67 -34 -53z"/>
<path d="M3561 5937 c-261 -181 -521 -406 -510 -441 7 -22 0 -41 -20 -48 -22
-9 -31 -39 -31 -100 l0 -88 318 0 317 0 34 52 c47 71 160 115 257 99 66 -10
86 -4 129 38 55 56 48 60 -50 32 -50 -14 -65 -12 -65 9 0 15 -7 30 -15 35 -8
5 -5 6 8 3 34 -8 65 33 54 69 -7 21 -5 25 6 10 12 -16 88 44 237 184 147 139
208 208 183 208 -21 1 -55 -21 -77 -49 -21 -27 -58 -50 -82 -50 -35 -1 -38 -4
-15 -19 24 -15 18 -23 -27 -40 -31 -12 -74 -44 -96 -71 -21 -28 -52 -50 -67
-50 -16 0 -29 -18 -29 -40 0 -24 -13 -40 -33 -40 -18 0 -45 -16 -59 -35 -18
-24 -27 -26 -27 -9 -1 34 -61 -21 -61 -56 0 -13 -16 -18 -39 -10 -25 8 -45 0
-58 -24 -11 -20 -26 -30 -33 -22 -8 7 -45 -4 -83 -26 -38 -21 -78 -34 -88 -27
-11 6 -19 -4 -19 -22 0 -25 -12 -30 -49 -21 -31 8 -60 1 -81 -21 -19 -19 -40
-25 -51 -14 -16 16 81 88 331 243 44 28 104 67 134 87 30 20 64 37 75 37 12 0
21 7 21 16 0 8 49 41 110 73 60 31 115 75 122 97 10 31 16 34 30 12 14 -22 17
-21 18 7 0 47 -64 45 -94 -3 -13 -21 -56 -49 -95 -62 -39 -13 -71 -30 -71 -39
0 -9 -16 -22 -35 -28 -19 -7 -62 -31 -95 -53 -33 -22 -88 -53 -122 -69 -33
-16 -73 -43 -87 -60 -14 -17 -33 -31 -42 -31 -9 0 -94 -45 -189 -100 -205
-118 -202 -118 -147 -34 51 78 204 187 250 177 23 -4 29 4 20 27 -7 17 -4 27
6 21 35 -22 241 211 241 273 0 74 -44 73 -159 -7z"/>
<path d="M4355 5840 c-91 -88 -172 -160 -180 -160 -8 0 -30 -25 -49 -55 -19
-30 -44 -62 -56 -71 -11 -9 2 -13 30 -10 37 4 49 16 44 46 -4 29 -1 33 12 14
18 -26 169 83 237 170 52 66 154 127 170 101 12 -20 20 -20 40 0 40 40 53 29
50 -40 -2 -51 -20 -78 -80 -121 -93 -69 -109 -59 -64 37 19 40 30 76 25 82
-18 17 -164 -138 -157 -168 4 -20 -4 -27 -25 -19 -20 8 -77 -32 -166 -117 -75
-71 -143 -129 -152 -129 -9 0 2 -27 26 -60 l42 -59 326 2 326 1 13 223 c19
329 16 493 -8 493 -12 0 -16 -9 -9 -20 7 -11 3 -20 -8 -20 -11 0 -25 9 -32 20
-47 77 -189 21 -355 -140z m205 -252 c0 -15 -14 -28 -30 -28 -25 0 -26 -7 -5
-40 30 -49 67 -51 91 -7 10 18 29 26 41 19 29 -18 30 -52 1 -52 -12 0 -50 -20
-85 -45 -76 -54 -89 -52 -178 32 -77 73 -72 133 11 133 24 0 57 9 72 18 36 23
82 6 82 -30z m-230 -128 c7 -11 3 -20 -9 -20 -11 0 -21 -18 -21 -40 0 -26 -13
-40 -38 -40 -34 0 -36 6 -16 60 23 60 61 78 84 40z"/>
<path d="M5091 5644 c-8 -195 -22 -547 -32 -784 -10 -236 -19 -527 -19 -645
l0 -215 -85 -1 c-364 -2 -935 -51 -671 -57 40 -1 79 -11 85 -21 7 -11 25 -14
42 -8 16 6 29 2 29 -8 0 -12 43 -17 100 -13 59 4 100 -1 100 -13 0 -14 -88
-16 -257 -7 -293 16 -382 4 -335 -43 16 -16 41 -29 56 -29 19 1 18 6 -4 20
-18 12 -20 20 -6 20 13 0 29 -9 36 -20 7 -11 28 -19 46 -19 28 2 27 5 -6 21
-29 13 -12 16 59 8 54 -6 105 -20 112 -32 10 -16 18 -16 28 0 21 34 111 27
111 -8 0 -16 10 -30 22 -30 13 0 18 18 12 41 -8 31 -5 36 13 21 16 -13 54 -13
111 0 100 22 100 22 106 -48 5 -52 5 -52 41 -13 38 41 144 53 165 19 20 -32
90 16 90 61 0 23 14 39 32 39 26 0 30 -14 20 -68 -10 -50 -5 -70 17 -79 23 -9
30 5 28 63 -1 70 44 1101 79 1794 20 389 18 404 -56 406 l-56 1 -13 -353z
m-103 -1761 c6 -9 -57 -18 -139 -19 -82 0 -149 7 -149 17 0 24 274 25 288 2z"/>
<path d="M5460 5959 c0 -23 9 -36 20 -29 12 7 16 21 9 31 -6 10 2 14 18 7 16
-6 35 -1 42 11 8 13 -7 21 -38 21 -38 0 -51 -10 -51 -41z"/>
<path d="M5540 5887 c-60 -61 -90 -99 -65 -84 25 14 45 33 45 42 0 8 14 15 30
15 17 0 30 -18 30 -42 0 -29 9 -39 30 -31 29 11 44 -90 35 -245 -4 -51 34
-118 63 -114 30 3 69 -130 70 -239 2 -97 60 -232 61 -143 1 20 10 31 21 24 11
-7 20 8 20 34 0 25 5 96 11 156 7 83 5 100 -11 70 -21 -41 -19 41 13 485 11
157 8 185 -17 185 -30 0 -56 -179 -56 -383 0 -42 -9 -77 -19 -77 -17 0 -17
261 -1 330 41 174 -96 182 -260 17z m230 8 c-5 -47 -15 -164 -21 -260 -7 -96
-21 -175 -32 -175 -19 0 -7 369 15 475 16 81 48 48 38 -40z"/>
<path d="M691 5685 c13 -249 18 -285 43 -285 17 0 13 344 -5 455 -26 160 -50
53 -38 -170z"/>
<path d="M403 5775 c-2 -55 5 -75 27 -75 17 0 30 14 30 31 0 17 -8 26 -19 20
-10 -6 -22 13 -27 44 -6 45 -9 41 -11 -20z"/>
<path d="M4860 5721 c0 -63 -6 -159 -13 -213 l-13 -98 53 48 c29 27 53 61 53
77 0 15 8 22 19 16 10 -6 25 -1 33 12 8 14 6 18 -7 10 -25 -15 -55 94 -36 126
7 11 3 39 -10 62 -20 38 -18 41 19 30 25 -8 42 -5 42 8 0 11 -16 22 -35 23
-19 0 -51 4 -70 8 -30 6 -35 -10 -35 -109z"/>
<path d="M899 5725 c-2 -60 -5 -67 -19 -35 -17 39 -17 39 -19 -3 0 -23 13 -48
29 -54 24 -9 30 6 30 78 0 107 -19 120 -21 14z"/>
<path d="M1020 5689 c0 -16 15 -36 32 -43 27 -10 30 -33 21 -134 -7 -75 -5
-107 5 -82 12 27 17 -13 18 -120 0 -137 30 -293 52 -268 3 5 -1 62 -9 128 -9
66 -16 205 -17 308 -2 154 -8 192 -37 214 -46 35 -65 35 -65 -3z"/>
<path d="M9 5528 c17 -70 22 -76 51 -58 16 10 15 22 -4 45 -14 17 -23 36 -19
43 3 6 -5 15 -18 19 -18 6 -21 -8 -10 -49z"/>
<path d="M1214 5365 c15 -253 26 -262 26 -20 0 106 -8 198 -18 204 -11 7 -14
-67 -8 -184z"/>
<path d="M213 5400 c12 -146 107 -194 107 -54 0 35 -7 55 -15 43 -29 -40 -75
-19 -88 41 -8 38 -10 28 -4 -30z"/>
<path d="M1262 5405 c2 -77 5 -86 18 -45 23 72 23 140 0 140 -11 0 -19 -43
-18 -95z"/>
<path d="M5591 5408 c-20 -83 34 -127 59 -48 8 24 1 52 -17 69 -25 26 -30 24
-42 -21z"/>
<path d="M75 5426 c-34 -9 -45 -39 -38 -112 2 -20 -6 -31 -17 -24 -12 8 -20
-24 -20 -80 0 -89 3 -93 85 -131 89 -40 144 -50 128 -23 -6 9 -2 29 8 45 14
23 18 19 19 -16 0 -54 29 -59 61 -10 20 32 21 32 10 -2 -9 -28 -4 -34 20 -25
18 6 77 12 131 12 56 0 98 9 98 21 0 12 -7 17 -15 12 -9 -5 -33 3 -54 19 -21
15 -29 28 -18 28 11 0 27 -6 34 -14 8 -8 39 -17 69 -21 30 -3 103 -15 163 -26
152 -27 177 -24 215 20 25 30 40 34 60 18 17 -14 26 -15 26 -2 0 12 -13 26
-30 32 -17 7 -30 37 -30 67 -1 38 -6 47 -17 30 -9 -15 -13 -49 -8 -75 11 -53
-57 -69 -130 -31 -178 94 -278 115 -295 62 -21 -65 -171 -24 -169 46 0 13 9 8
21 -11 28 -49 110 -44 146 9 39 56 35 59 -87 68 -80 5 -101 1 -101 -23 0 -17
-13 -35 -29 -42 -46 -17 61 -101 114 -90 8 2 15 -6 15 -17 0 -11 -10 -20 -21
-20 -12 0 -16 -8 -10 -18 6 -10 -8 -13 -31 -7 -27 7 -33 16 -18 25 17 10 15
18 -7 26 -17 7 -35 1 -40 -12 -5 -13 -11 -6 -13 16 -3 40 -3 40 -20 0 -16 -37
-17 -36 -20 10 -2 43 -5 45 -18 12 -13 -34 -18 -35 -43 -8 -25 27 -31 27 -50
1 -20 -27 -74 -16 -125 25 -3 3 5 28 18 57 25 54 58 71 58 31 0 -12 14 -17 31
-10 18 6 26 3 19 -8 -7 -11 -3 -20 9 -20 11 0 21 32 21 71 0 39 -8 66 -19 60
-10 -6 -25 -1 -33 12 -9 14 -6 18 9 9 14 -9 23 -2 23 17 0 31 -18 35 -85 17z"/>
<path d="M4945 5427 c-16 -7 -24 -45 -22 -104 l4 -93 8 80 c4 44 17 91 29 105
22 27 20 28 -19 12z"/>
<path d="M4844 5347 c-3 -44 -16 -65 -45 -73 -35 -9 -38 -18 -20 -51 30 -58
40 -169 16 -198 -14 -17 -13 -25 3 -25 14 0 23 -61 25 -175 3 -174 3 -174 20
75 10 138 15 309 11 380 -3 72 -8 102 -10 67z"/>
<path d="M3729 5295 c-90 -83 -108 -178 -50 -271 l41 -65 68 54 c73 58 69 76
-28 121 -40 19 -43 24 -13 25 31 1 34 6 13 31 -31 37 -14 38 56 3 30 -15 89
-34 133 -42 52 -9 69 -20 52 -30 -14 -9 -20 -27 -12 -39 7 -12 4 -22 -8 -22
-31 0 -101 -76 -101 -110 0 -52 60 -33 132 40 205 212 -67 505 -283 305z"/>
<path d="M2332 5225 c-16 -67 1 -120 29 -92 9 9 9 49 1 87 l-15 70 -15 -65z"/>
<path d="M4277 5227 c-1 -20 -2 -71 -1 -112 1 -69 -2 -73 -39 -54 -71 39 -85
8 -16 -36 82 -52 78 -55 97 83 12 85 9 118 -11 135 -21 17 -28 13 -30 -16z"/>
<path d="M5626 5202 c-36 -58 -63 -630 -34 -725 5 -19 1 -39 -10 -46 -11 -7
-15 -25 -9 -42 7 -17 0 -29 -17 -29 -16 0 -46 -14 -67 -31 -22 -18 -28 -26
-14 -19 77 39 121 -47 62 -122 -21 -27 -2 -48 43 -48 34 0 46 113 93 885 12
212 1 254 -47 177z"/>
<path d="M3448 5173 c-60 -51 -55 -71 33 -133 l59 -43 0 112 c0 123 -13 132
-92 64z m72 -87 c0 -50 -3 -52 -32 -22 -18 18 -27 42 -19 54 24 40 51 23 51
-32z"/>
<path d="M4514 5187 c9 -23 5 -29 -11 -19 -12 8 -23 6 -23 -5 0 -11 11 -24 25
-30 14 -5 7 -11 -15 -12 -38 -2 -37 -5 8 -42 53 -45 71 -36 90 45 9 42 3 59
-27 75 -53 29 -62 26 -47 -12z"/>
<path d="M4741 5210 c-3 -11 -4 -40 -2 -63 3 -35 -5 -42 -38 -33 -54 14 -53
-26 1 -55 55 -30 62 -19 53 84 -5 48 -11 78 -14 67z"/>
<path d="M4970 5180 c-7 -12 -20 -16 -29 -11 -14 9 -46 -91 -33 -103 26 -27
92 28 92 76 0 61 -9 72 -30 38z"/>
<path d="M995 5016 c-11 -35 -887 -52 -921 -18 -39 39 -74 24 -74 -31 l0 -53
455 13 c250 7 486 22 524 32 90 26 86 40 62 -232 -54 -624 -79 -935 -88 -1137
l-11 -220 26 150 c14 83 38 335 53 560 l27 410 34 -140 c19 -77 35 -134 36
-127 1 7 16 86 33 176 22 117 26 182 12 228 -22 72 -47 236 -31 198 37 -84
127 -7 128 110 0 51 -108 68 -127 20 -5 -14 -11 -5 -11 20 -1 25 -15 45 -30
45 -16 0 -42 5 -58 11 -16 7 -34 0 -39 -15z"/>
<path d="M4902 4910 c-1 -77 -8 -243 -15 -368 -10 -164 -7 -225 8 -215 13 8
22 29 22 48 -1 19 5 130 11 245 7 116 4 260 -6 320 l-17 110 -3 -140z"/>
<path d="M4124 4774 c-1 -103 -11 -210 -22 -239 -20 -53 9 -155 44 -155 74 -1
87 37 89 254 1 119 11 241 23 271 21 54 20 55 -55 55 l-76 0 -3 -186z"/>
<path d="M29 4832 c-21 -16 -32 -35 -24 -44 8 -8 15 -4 15 9 0 34 99 28 113
-7 17 -46 -33 -95 -88 -84 -29 5 -44 0 -39 -14 12 -36 86 -37 122 -2 44 45 41
124 -7 149 -48 26 -46 27 -92 -7z"/>
<path d="M5672 4555 c-8 -145 -19 -304 -26 -354 -6 -50 -5 -85 2 -79 18 17 67
679 51 689 -7 4 -19 -111 -27 -256z"/>
<path d="M1160 4717 c0 -20 14 -37 30 -37 17 0 30 17 30 37 0 20 -13 36 -30
36 -16 0 -30 -16 -30 -36z"/>
<path d="M5767 4590 c0 -77 3 -106 8 -65 4 42 4 105 -1 140 -4 36 -8 2 -7 -75z"/>
<path d="M75 4645 c-88 -9 -102 -45 -18 -45 128 0 256 27 203 42 -54 15 -70
15 -185 3z"/>
<path d="M4800 4350 c0 -97 4 -173 9 -168 14 14 18 318 4 332 -7 7 -13 -67
-13 -164z"/>
<path d="M2160 4470 c0 -16 -13 -30 -30 -30 -16 0 -30 -10 -30 -22 0 -12 14
-17 32 -10 17 7 38 12 45 12 8 0 14 18 14 40 0 22 -7 40 -15 40 -9 0 -16 -13
-16 -30z"/>
<path d="M5375 4450 c-91 -85 -72 -124 30 -64 86 51 110 99 55 109 -16 3 -55
-17 -85 -45z"/>
<path d="M2120 4307 c0 -19 -11 -27 -29 -20 -17 6 -35 3 -41 -6 -18 -30 23
-42 73 -22 26 10 38 19 27 20 -11 1 -8 9 7 19 21 13 20 19 -5 29 -21 8 -32 1
-32 -20z"/>
<path d="M2020 4129 c-29 -76 -24 -109 15 -107 21 1 25 5 10 11 -46 19 -26 50
30 46 30 -3 78 6 105 19 44 20 45 22 6 15 -26 -5 -63 7 -88 29 -56 48 -55 48
-78 -13z"/>
<path d="M4960 4123 c0 -9 -20 -27 -45 -39 -34 -16 -37 -22 -11 -23 18 0 40 9
47 20 7 12 26 17 41 11 16 -6 28 2 28 19 0 16 -13 29 -30 29 -16 0 -30 -8 -30
-17z"/>
<path d="M1553 4056 c-20 -72 -15 -96 17 -96 17 0 31 18 33 40 2 22 4 51 5 63
4 45 -43 38 -55 -7z"/>
<path d="M2065 4013 c-74 -24 -83 -45 -25 -63 47 -15 80 2 80 41 0 18 12 23
33 15 23 -9 29 -5 19 11 -16 26 -17 26 -107 -4z"/>
<path d="M5793 3685 c-5 -19 -16 -80 -25 -135 -8 -55 -17 -111 -19 -125 -3
-14 3 -30 13 -36 10 -6 18 -29 18 -50 0 -22 17 -56 38 -77 21 -21 47 -54 58
-74 17 -30 25 -32 51 -10 17 14 41 20 52 13 32 -20 25 87 -7 120 -16 16 -32
39 -36 52 -5 13 -37 24 -72 24 -64 0 -120 115 -72 150 10 7 19 51 21 98 3 90
-4 108 -20 50z"/>
<path d="M608 2946 c2 -51 112 -114 112 -64 0 18 -28 26 -75 19 -30 -3 -31 10
-4 60 16 30 14 39 -7 39 -18 0 -27 -20 -26 -54z"/>
<path d="M5822 2919 l2 -89 19 68 c13 46 13 74 -2 89 -15 15 -20 -5 -19 -68z"/>
<path d="M5952 2877 c-29 -41 -25 -140 8 -187 23 -33 9 -132 -22 -152 -21 -14
-22 -22 -4 -34 13 -8 33 -37 44 -65 14 -36 20 21 21 216 1 282 0 288 -47 222z"/>
<path d="M600 2840 c0 -11 -18 -20 -40 -20 -22 0 -38 -11 -35 -25 3 -14 -11
-22 -32 -19 -21 4 -32 -2 -25 -13 7 -11 -8 -24 -33 -29 -25 -5 -10 -9 33 -7
56 1 81 11 87 36 5 19 21 30 37 23 19 -7 28 4 28 32 0 23 -4 42 -10 42 -5 0
-10 -9 -10 -20z"/>
<path d="M300 2800 c0 -11 -16 -21 -35 -21 -30 -2 -29 -4 5 -18 22 -8 43 -8
47 2 3 9 19 17 33 17 15 0 33 9 40 20 7 11 -10 20 -39 20 -28 0 -51 -9 -51
-20z"/>
<path d="M817 2742 c23 -14 21 -22 -10 -39 -20 -12 -26 -22 -12 -22 14 -1 31
-2 39 -2 8 -1 21 17 29 40 13 34 8 41 -29 41 -32 -1 -37 -5 -17 -18z"/>
<path d="M570 2521 c-6 -11 -40 -15 -76 -9 -49 9 -57 6 -34 -10 39 -28 120
-28 120 -1 0 12 8 16 19 10 10 -6 24 -3 31 9 7 11 -1 20 -18 20 -16 0 -35 -9
-42 -19z"/>
<path d="M5184 2465 c3 -41 15 -75 26 -75 11 0 22 34 24 75 3 56 -4 75 -26 75
-23 0 -29 -19 -24 -75z"/>
<path d="M5967 2350 c-24 -42 -50 -370 -29 -370 53 2 63 43 58 222 -5 153 -10
180 -29 148z"/>
<path d="M4522 2333 c-15 -19 -17 -43 -4 -75 11 -27 20 -36 21 -22 0 15 9 21
20 15 10 -6 24 -2 31 10 17 27 94 17 121 -17 15 -20 21 -14 24 25 5 52 -7 59
-91 52 -25 -2 -58 6 -72 18 -20 16 -33 14 -50 -6z"/>
<path d="M5026 2250 c10 -101 37 -114 30 -14 -3 46 -13 84 -22 84 -8 0 -12
-31 -8 -70z"/>
<path d="M110 2280 c56 -24 110 -24 110 0 0 11 -34 19 -75 19 -60 -2 -67 -5
-35 -19z"/>
<path d="M4369 2135 c-7 -19 -33 -36 -56 -37 -24 0 -32 -6 -18 -11 14 -6 20
-19 14 -29 -6 -10 7 -18 30 -18 25 0 42 14 43 35 0 19 6 24 11 11 11 -28 67
-12 67 19 0 12 -6 16 -13 9 -7 -8 -25 2 -39 21 -24 33 -26 33 -39 0z"/>
<path d="M65 1987 c19 -5 35 -25 35 -43 1 -29 3 -30 20 -4 18 27 22 27 40 0
13 -20 19 -22 20 -5 0 14 15 25 33 25 64 0 16 15 -83 26 -55 6 -84 7 -65 1z"/>
<path d="M325 1940 c2 -22 6 -40 10 -40 4 0 26 18 50 40 l43 40 -53 0 c-40 0
-52 -9 -50 -40z"/>
<path d="M4886 1841 c9 -37 1 -41 -83 -40 -89 0 -91 1 -44 28 49 27 49 27 -25
27 -73 0 -103 -39 -49 -64 14 -6 -4 -6 -40 0 -56 10 -65 5 -65 -30 0 -84 281
-182 519 -182 144 0 218 21 141 41 -30 7 -47 24 -43 41 22 82 15 88 -96 89
-107 1 -110 2 -110 58 -1 48 -11 59 -59 65 -49 7 -56 3 -46 -33z"/>
<path d="M5040 1840 c-26 -17 -26 -19 3 -20 19 0 38 -11 44 -25 7 -19 10 -19
11 0 1 16 22 20 62 12 38 -8 60 -4 60 11 0 12 -22 22 -48 22 -27 0 -61 4 -75
10 -15 5 -40 1 -57 -10z"/>
<path d="M5380 1826 c0 -14 87 -85 105 -85 41 -2 7 53 -45 73 -33 12 -60 18
-60 12z"/>
<path d="M420 1762 c0 -12 16 -22 36 -22 20 0 47 -11 60 -24 19 -19 24 -16 24
10 0 19 -13 34 -28 34 -16 0 -43 5 -60 12 -18 7 -32 2 -32 -10z"/>
<path d="M5250 1720 c6 -9 -1 -21 -15 -27 -20 -8 -20 -10 0 -11 14 -1 42 -19
63 -40 22 -22 55 -37 74 -34 37 6 77 104 49 122 -9 5 -21 -8 -27 -29 -7 -28
-21 -35 -52 -27 -23 6 -37 18 -32 26 5 8 -8 20 -30 26 -22 6 -35 3 -30 -6z"/>
<path d="M160 1700 c0 -11 10 -20 22 -20 13 0 18 -18 12 -40 -9 -34 0 -40 52
-40 56 0 58 -2 25 -27 -22 -16 -71 -23 -128 -18 -51 5 -88 3 -82 -3 21 -21
260 -46 271 -29 6 9 -10 18 -36 19 -34 2 -37 5 -11 12 50 13 43 62 -9 70 -24
3 -49 24 -55 46 -11 41 -61 66 -61 30z"/>
<path d="M403 1593 c41 -13 80 -30 89 -38 20 -21 48 -19 48 3 0 23 -112 63
-168 60 -28 -1 -17 -10 31 -25z"/>
<path d="M4680 1566 c0 -106 556 -165 694 -75 56 37 61 58 7 30 -49 -26 -213
-43 -256 -26 -29 11 -29 13 2 24 18 6 -29 10 -104 9 -76 -1 -148 -9 -160 -16
-32 -20 -108 26 -96 57 7 18 -6 26 -38 24 -27 -2 -49 -14 -49 -27z"/>
<path d="M745 1466 c40 -6 56 -21 57 -52 2 -34 5 -36 12 -9 5 19 17 35 27 35
11 0 19 9 19 20 0 11 -38 19 -85 17 -60 -2 -69 -5 -30 -11z"/>
<path d="M1838 1467 c-17 -5 -52 -58 -77 -119 -25 -60 -56 -121 -68 -135 -60
-66 -108 -183 -84 -205 26 -25 91 9 91 47 0 11 14 31 30 45 24 20 30 20 30 -3
1 -22 4 -22 17 -1 9 15 13 49 8 75 -5 27 -1 49 10 49 11 0 20 22 20 50 0 75
40 114 89 88 35 -19 38 -16 27 20 -12 36 -5 42 49 42 43 0 58 -8 50 -25 -7
-14 0 -9 16 10 32 40 74 46 74 12 0 -13 6 -18 13 -11 7 8 25 4 38 -7 18 -15
29 -14 39 1 7 11 4 19 -7 15 -10 -3 -18 4 -17 15 3 36 -251 63 -348 37z"/>
<path d="M4640 1448 c0 -56 372 -137 533 -117 97 12 107 10 107 -24 0 -42 -5
-43 -225 -48 -95 -2 -172 8 -222 29 -43 17 -87 26 -98 19 -11 -7 -37 9 -56 35
-20 26 -44 40 -53 31 -9 -9 7 -36 34 -60 49 -42 60 -57 60 -88 0 -8 9 -1 20
15 15 24 25 25 54 5 116 -80 373 -129 276 -52 -39 31 -38 31 17 22 32 -6 102
1 156 16 55 14 96 20 93 12 -69 -136 -69 -140 12 -169 44 -15 -14 -94 -84
-113 -249 -70 -444 -35 -586 107 l-83 82 34 -66 c18 -36 32 -81 30 -100 -7
-65 1 -81 44 -88 24 -3 53 -24 65 -46 47 -85 84 -120 132 -126 28 -4 73 -11
100 -17 28 -6 81 -16 119 -22 38 -6 82 -23 97 -38 17 -17 45 -23 69 -16 27 9
35 6 26 -9 -17 -28 33 -20 54 8 10 13 20 13 30 0 8 -11 33 -23 55 -26 29 -4
33 -1 14 12 -15 10 -29 34 -32 54 -6 44 -185 99 -200 62 -5 -12 -10 -2 -10 23
-2 49 -62 64 -62 15 0 -40 -93 -61 -130 -30 -17 14 -30 17 -31 7 0 -9 -13 5
-27 32 -21 36 -22 54 -5 71 30 30 159 57 143 30 -7 -11 -3 -20 9 -20 11 0 21
9 21 19 0 31 138 61 190 41 25 -10 89 -79 142 -154 52 -75 115 -158 140 -186
25 -27 59 -81 76 -120 17 -38 71 -128 122 -200 51 -72 112 -161 136 -200 l44
-70 6 87 c8 113 -4 143 -61 143 -33 0 -53 17 -69 60 -12 33 -37 60 -54 60 -18
0 -32 9 -32 20 0 11 10 20 21 20 39 0 10 89 -31 97 -22 4 -49 16 -60 28 -14
14 -12 17 4 8 32 -19 56 25 28 53 -12 12 -22 39 -22 59 0 21 -8 32 -19 26 -29
-18 -47 28 -22 58 17 20 15 29 -8 38 -44 17 -38 53 9 53 22 0 40 10 40 23 0
14 -22 18 -59 10 -33 -6 -65 -3 -71 7 -14 22 64 66 89 51 10 -7 24 -3 31 9 8
12 -24 20 -84 21 -149 1 -185 49 -139 190 10 30 -1 54 -37 85 -28 25 -50 65
-50 94 0 31 -11 50 -30 50 -16 0 -30 -9 -30 -20 0 -11 -10 -20 -22 -20 -12 0
-18 11 -13 25 18 54 -164 106 -195 55 -20 -32 -151 -22 -270 21 -107 39 -200
61 -200 47z"/>
<path d="M2022 1362 c-21 -14 -8 -38 58 -110 47 -50 75 -92 63 -92 -13 0 27
-50 89 -111 62 -61 117 -107 123 -101 6 6 -34 53 -87 104 -63 60 -73 74 -28
39 39 -29 84 -57 100 -63 95 -33 163 -209 106 -273 -43 -46 -10 -74 87 -75 75
0 114 86 58 127 -18 13 -52 56 -76 96 -25 40 -112 147 -195 238 -82 90 -162
181 -176 202 -28 40 -77 47 -122 19z m308 -279 c-21 -20 -230 176 -230 215 0
18 51 -20 119 -87 66 -66 116 -123 111 -128z"/>
<path d="M4662 1207 c34 -37 41 -55 22 -62 -20 -7 -20 -15 -2 -37 20 -24 27
-23 51 7 27 33 28 33 23 -3 -6 -41 29 -56 202 -91 91 -18 149 -9 132 19 -18
28 52 40 96 17 40 -21 41 -20 17 10 -20 23 -59 33 -132 33 -121 0 -368 80
-395 128 -10 17 -28 32 -40 32 -13 0 -1 -24 26 -53z"/>
<path d="M4103 1013 c-13 -15 -19 -30 -15 -35 5 -4 -29 -11 -75 -14 -45 -3
-92 -15 -103 -27 -14 -15 -11 -19 10 -13 17 6 53 3 81 -5 33 -9 65 -4 89 13
21 16 56 28 79 28 33 1 35 4 12 19 -16 10 -36 14 -45 9 -8 -6 -10 4 -4 21 15
38 1 40 -29 4z"/>
<path d="M1043 993 c-13 -15 -16 -35 -8 -44 8 -10 1 -7 -17 6 -17 14 -36 21
-41 16 -9 -10 -302 -116 -717 -261 -155 -54 -252 -99 -256 -118 -5 -21 151 24
570 165 428 145 578 204 582 229 8 42 -80 48 -113 7z"/>
<path d="M4247 1004 c-18 -11 -17 -26 2 -62 16 -30 30 -39 39 -25 8 13 3 23
-12 24 -16 0 -12 8 9 21 19 11 46 14 58 6 15 -9 18 -5 8 10 -8 14 -27 20 -42
14 -14 -5 -29 -2 -33 8 -3 11 -16 12 -29 4z"/>
<path d="M1548 966 c-22 -36 12 -131 56 -159 15 -9 16 -4 5 15 -23 36 -32 77
-31 133 2 54 -2 55 -30 11z"/>
<path d="M7 929 c-16 -40 10 -66 32 -31 9 15 27 21 39 13 12 -7 22 0 22 18 0
41 -78 41 -93 0z"/>
<path d="M1456 811 c-33 -55 -45 -91 -31 -96 13 -4 15 -18 6 -33 -13 -21 -19
-21 -33 1 -13 20 -17 15 -18 -17 0 -25 -16 -48 -39 -56 -28 -8 -43 -38 -52
-101 -7 -49 -21 -84 -30 -78 -9 5 -26 -8 -38 -29 -18 -34 -15 -39 19 -32 22 4
40 -1 40 -11 0 -11 -14 -19 -31 -19 -43 0 -131 -61 -118 -82 18 -28 49 -21 49
11 0 35 40 62 57 39 18 -26 69 -33 53 -8 -7 11 -3 20 9 20 13 0 17 22 10 55
-10 44 -8 49 11 25 19 -25 22 -22 13 17 -7 34 -3 43 18 35 38 -14 37 8 -1 36
-26 19 -23 30 21 82 29 33 46 48 38 33 -13 -25 52 -104 85 -102 9 0 -5 18 -31
40 -36 30 -40 39 -15 39 21 0 32 17 32 49 0 26 14 62 31 80 31 30 17 42 -37
33 -8 -1 -1 25 17 59 51 99 24 108 -35 10z"/>
<path d="M4517 826 c-29 -31 -48 -67 -43 -81 5 -14 0 -25 -12 -25 -12 0 -22 9
-22 19 0 38 -57 -3 -68 -49 -7 -25 -17 -61 -24 -78 -9 -23 -1 -32 28 -32 46 0
270 232 258 267 -14 43 -65 34 -117 -21z"/>
<path d="M2310 835 c-15 -40 -110 -404 -110 -419 0 -7 28 -5 63 5 34 10 69 14
78 9 8 -6 20 3 26 19 6 17 5 34 -3 39 -17 10 -13 261 4 289 15 25 -6 83 -31
83 -10 0 -22 -11 -27 -25z"/>
<path d="M1930 800 c20 -22 31 -40 25 -40 -7 0 -27 -6 -47 -13 -25 -10 -30 -7
-18 13 11 19 9 21 -10 10 -19 -12 -23 -8 -14 16 8 22 3 29 -17 21 -36 -14 -38
-40 -4 -54 19 -7 18 -15 -5 -31 -19 -13 -37 -13 -49 -1 -28 28 -56 23 -38 -6
9 -14 16 -38 16 -53 1 -16 15 -33 31 -39 25 -8 26 -4 4 21 -21 26 -19 33 7 44
45 17 49 15 38 -14 -6 -15 10 -44 35 -65 l46 -39 -35 42 c-56 66 -41 76 28 18
60 -50 65 -51 83 -17 29 55 30 55 69 26 32 -25 33 -24 4 8 -32 34 -99 28 -99
-10 0 -11 -9 -14 -20 -7 -12 7 -16 21 -9 31 6 10 -1 14 -17 8 -15 -6 -40 5
-56 24 -25 31 -24 33 7 21 20 -7 35 -3 35 9 0 12 14 16 30 10 17 -7 30 -4 30
5 0 9 20 27 45 40 25 13 29 19 10 13 -19 -5 -35 0 -35 11 0 11 -8 15 -19 9
-10 -6 -24 -3 -31 9 -7 11 -22 20 -34 20 -12 0 -6 -18 14 -40z"/>
<path d="M3229 791 c-435 -79 -653 -424 -422 -668 103 -109 294 -173 293 -98
-1 95 -22 115 -85 82 l-61 -31 13 64 c7 36 13 73 13 82 0 10 43 40 95 67 143
74 154 83 119 97 -16 6 -53 -2 -82 -17 -29 -15 -67 -22 -84 -16 -17 7 -51 -7
-76 -32 -40 -37 -49 -39 -59 -12 -14 37 12 114 50 145 45 38 383 52 370 15 -7
-16 -1 -29 12 -29 17 0 17 -6 -1 -24 -33 -33 -30 -56 6 -56 81 0 16 -39 -75
-45 l-105 -7 65 -28 c36 -16 65 -36 65 -44 0 -9 19 -16 42 -16 64 0 163 -116
149 -173 -10 -40 -4 -47 40 -47 29 0 46 9 39 20 -7 11 -2 20 12 20 13 0 36 16
51 35 25 32 26 32 13 -5 -11 -34 -9 -36 17 -15 17 13 37 19 44 11 7 -7 13 -2
13 11 0 12 -7 23 -16 23 -32 0 -62 117 -32 128 16 6 28 2 28 -9 0 -10 14 -19
32 -19 17 0 36 -16 41 -36 14 -53 194 -48 204 7 4 22 0 32 -8 24 -21 -20 -112
108 -100 139 12 31 -61 36 -79 6 -7 -11 2 -20 19 -20 17 0 31 -9 31 -20 0 -24
5 -24 -77 -1 -53 15 -74 13 -99 -12 -29 -30 -28 -31 11 -19 51 17 248 -48 239
-77 -11 -32 -109 -32 -122 0 -6 16 -25 29 -41 29 -17 0 -31 8 -31 19 0 10 -32
13 -72 7 -71 -12 -72 -11 -47 36 23 43 22 45 -6 22 -36 -29 -62 -4 -44 42 15
37 72 53 191 54 145 0 260 -51 199 -89 -31 -20 0 -71 43 -71 23 0 44 17 50 41
8 28 22 37 48 28 22 -7 38 -2 38 11 0 12 -9 17 -20 10 -11 -7 -20 -4 -20 7 0
10 -24 34 -52 53 -29 19 -47 24 -39 12 17 -27 1 -28 -44 -2 -19 10 -102 27
-185 37 -82 9 -168 24 -190 32 -37 13 -38 12 -5 -14 19 -16 29 -35 22 -42 -8
-7 -24 -3 -38 8 -17 14 -34 11 -55 -10 -34 -33 -84 -43 -65 -12 6 10 3 24 -9
31 -11 7 -21 1 -22 -14 -1 -14 -10 1 -20 34 -32 106 -15 117 160 105 95 -7
194 -27 253 -53 52 -23 100 -38 105 -32 6 5 3 10 -6 10 -10 0 -1 13 20 28 33
23 34 33 12 60 -16 19 -18 32 -6 32 12 0 28 -20 35 -44 16 -50 49 -86 136
-151 70 -52 110 -60 72 -14 -19 23 -20 36 -2 54 17 17 23 15 23 -9 0 -18 10
-36 23 -40 18 -6 18 -24 1 -72 -23 -68 0 -88 34 -29 19 32 21 32 23 -5 2 -40
2 -40 18 0 15 37 18 36 31 -15 20 -78 1 -136 -72 -210 l-63 -65 231 0 231 0
-16 57 c-28 96 -58 138 -106 147 -48 9 -109 -33 -77 -53 10 -6 22 -1 26 11 5
14 17 11 34 -10 24 -28 20 -32 -25 -32 -40 0 -49 -8 -39 -33 8 -21 5 -29 -8
-21 -12 7 -22 79 -24 159 -7 404 -556 674 -1153 566z m731 -111 c0 -11 -10
-20 -21 -20 -12 0 -16 -9 -9 -20 7 -11 -1 -14 -19 -8 -45 18 -38 68 9 68 22 0
40 -9 40 -20z m-557 -20 c22 0 34 -9 27 -20 -7 -11 -64 -19 -126 -17 -72 2
-90 6 -49 11 42 6 61 17 52 31 -9 14 -2 17 21 8 20 -7 53 -13 75 -13z m624
-25 c-8 -12 -4 -15 9 -7 28 17 141 -56 191 -121 41 -56 81 -174 52 -156 -11 6
-19 27 -19 46 0 43 -160 204 -201 201 -20 -1 -21 -4 -4 -11 29 -12 34 -67 6
-67 -10 0 -24 18 -31 40 -7 22 -21 36 -30 30 -24 -15 -42 21 -28 57 6 17 24
26 40 20 15 -6 22 -21 15 -32z m-173 -28 c8 -23 -90 -58 -109 -38 -6 5 1 24
15 41 29 35 82 33 94 -3z"/>
<path d="M5946 706 c11 -105 54 -111 54 -8 0 60 -8 82 -31 82 -23 0 -28 -18
-23 -74z"/>
<path d="M2715 698 c-42 -21 -107 -40 -146 -42 -97 -4 -103 -26 -26 -96 78
-71 168 -83 151 -20 -7 29 6 49 48 74 45 27 89 132 53 125 -3 0 -39 -19 -80
-41z"/>
<path d="M4860 703 c0 -10 61 -125 136 -256 75 -130 162 -284 194 -342 56
-104 57 -105 152 -105 91 0 140 24 100 49 -10 6 -23 0 -29 -14 -6 -15 -10 -11
-11 10 -2 40 -34 47 -48 10 -5 -14 -20 -2 -34 29 -19 41 -20 62 -3 82 16 20
16 33 -2 51 -19 19 -11 35 34 73 31 28 48 50 36 50 -11 0 -42 -22 -68 -50 -56
-59 -77 -63 -77 -14 0 20 -12 53 -28 74 -15 21 -23 50 -18 64 7 17 0 22 -19
15 -17 -6 -35 3 -42 21 -9 22 -5 28 12 18 14 -8 7 4 -15 25 -22 22 -63 66 -91
98 -56 65 -179 142 -179 112z"/>
<path d="M1851 575 c8 -20 4 -35 -9 -35 -12 0 -22 10 -22 22 0 16 -9 15 -30
-2 -45 -37 -36 -56 20 -45 62 12 82 41 51 72 -18 17 -20 15 -10 -12z"/>
<path d="M1554 537 c-33 -18 -32 -22 9 -55 25 -21 37 -46 29 -59 -10 -17 -26
-10 -53 22 -21 25 -38 35 -38 23 -1 -22 67 -90 119 -119 26 -14 26 -12 2 18
-15 19 -21 40 -14 48 8 8 23 1 33 -16 16 -25 18 -24 19 4 0 18 -23 48 -52 66
-28 19 -46 39 -40 45 6 7 25 0 42 -14 44 -36 58 -13 15 25 -26 24 -45 27 -71
12z"/>
<path d="M5970 520 c-7 -22 -20 -40 -28 -40 -8 0 -17 -11 -18 -25 -2 -14 -6
-47 -10 -75 -7 -61 21 -134 59 -148 31 -12 37 39 7 58 -11 7 -20 21 -20 32 0
11 9 15 20 8 12 -8 20 33 20 109 0 126 -8 149 -30 81z"/>
<path d="M1861 491 c-25 -30 26 -129 67 -130 10 -1 2 16 -17 38 -22 24 -30 53
-21 80 15 48 5 53 -29 12z"/>
<path d="M1430 461 c-7 -12 -5 -21 4 -21 9 0 3 -10 -14 -20 -23 -16 -19 -19
20 -15 31 3 48 -4 45 -20 -3 -14 4 -25 15 -25 29 0 25 18 -18 73 -23 28 -44
40 -52 28z"/>
<path d="M2374 384 c-98 -12 -168 -114 -125 -182 12 -19 10 -24 -6 -14 -39 24
-25 -15 27 -73 54 -62 70 -68 70 -26 0 18 12 25 31 18 21 -8 24 -19 10 -36
-12 -14 -15 -31 -7 -38 27 -28 46 -11 46 43 0 30 18 70 39 88 81 70 18 233
-85 220z"/>
<path d="M2107 356 c-9 -16 7 -23 38 -18 8 1 15 -8 15 -19 0 -12 9 -16 20 -9
36 22 21 68 -22 64 -22 -1 -45 -10 -51 -18z"/>
<path d="M65 287 c-51 -25 -65 -44 -65 -90 l0 -57 80 75 c113 106 107 132 -15
72z"/>
<path d="M1762 289 c-2 -19 18 -39 108 -109 32 -25 31 -20 -7 35 -25 36 -54
61 -63 55 -9 -6 -21 1 -27 15 -5 14 -11 16 -11 4z"/>
<path d="M1105 196 c-25 -12 -45 -35 -45 -51 0 -16 -22 -47 -50 -69 -77 -60
-61 -73 94 -71 80 1 132 6 115 11 -16 5 -46 24 -67 42 -36 30 -38 30 -25 -8
13 -39 13 -39 -17 -1 -27 35 -25 41 25 75 30 19 44 36 30 36 -14 0 -25 9 -25
20 0 11 14 20 30 20 17 0 30 -9 30 -20 0 -11 10 -20 22 -20 16 0 15 9 -2 30
-29 35 -52 36 -115 6z"/>
<path d="M1541 178 c9 -17 32 -44 51 -60 32 -26 33 -24 11 16 -30 57 -29 61
12 72 19 5 7 8 -28 6 -51 -2 -60 -8 -46 -34z"/>
<path d="M4109 155 c4 -36 9 -77 10 -91 0 -15 10 -21 21 -14 37 23 18 170 -22
170 -10 0 -14 -29 -9 -65z"/>
<path d="M4810 185 c10 -36 5 -45 -29 -45 -22 0 -41 -10 -41 -21 0 -13 18 -16
45 -8 69 21 78 38 44 80 -30 38 -31 38 -19 -6z"/>
<path d="M1815 167 c14 -6 20 -19 14 -29 -6 -10 0 -18 14 -18 13 0 7 -13 -14
-29 -46 -35 -24 -41 28 -8 40 25 3 99 -46 95 -12 0 -10 -6 4 -11z"/>
<path d="M3980 141 c-10 -20 -12 -43 -4 -52 8 -8 3 -9 -11 -1 -14 8 -53 1 -87
-16 -48 -24 -69 -26 -99 -7 -31 20 -45 18 -73 -10 -42 -43 8 -52 53 -10 22 20
25 19 15 -10 -20 -55 95 -47 135 9 31 45 31 45 31 2 0 -35 11 -42 68 -40 66 2
67 3 38 48 -27 41 -27 47 2 58 44 17 40 41 -8 54 -26 7 -47 -2 -60 -25z"/>
<path d="M2120 110 c-35 -91 -26 -110 50 -110 78 0 80 4 47 66 -48 89 -75 102
-97 44z"/>
<path d="M1515 98 c7 -28 2 -40 -17 -37 -56 8 -98 -1 -98 -21 0 -11 14 -20 30
-20 17 0 30 10 30 21 0 12 11 15 24 7 45 -28 133 -23 121 7 -7 20 -17 21 -32
6 -34 -34 -48 -24 -38 29 5 28 0 50 -11 50 -11 0 -15 -19 -9 -42z"/>
<path d="M3166 78 c-39 -39 -6 -78 66 -78 55 0 65 6 54 35 -23 63 -80 83 -120
43z"/>
</g>
</svg>
